# Alias OBJ Model File
# Exported from SketchUp, (c) 2000-2012 Trimble Navigation Limited
# File units = meters

mtllib box.mtl

g Mesh1 Model

usemtl FrontColor
v -45.5076 0 -3.45588
vt 1791.64 136.058
vn 0 -1 -0
v -45.5076 0 -29.4859
vt 1791.64 1160.86
v -7.9576 0 -29.4859
vt 313.291 1160.86
v -7.9576 0 -3.45588
vt 313.291 136.058
f 1/1/1 2/2/1 3/3/1 4/4/1 

vt -1160.86 0
vn -1 0 -0
vt -136.058 0
v -45.5076 9.83 -3.45588
vt -136.058 387.008
v -45.5076 9.83 -29.4859
vt -1160.86 387.008
f 2/5/2 1/6/2 5/7/2 6/8/2 

vt -1791.64 0
vn 0 0 1
vt -313.291 0
v -7.9576 9.83 -3.45588
vt -313.291 387.008
vt -1791.64 387.008
f 1/9/3 4/10/3 7/11/3 5/12/3 

vt 136.058 0
vn 1 0 -0
vt 1160.86 0
v -7.9576 9.83 -29.4859
vt 1160.86 387.008
vt 136.058 387.008
f 4/13/4 3/14/4 8/15/4 7/16/4 

vt 313.291 0
vn 0 0 -1
vt 1791.64 0
vt 1791.64 387.008
vt 313.291 387.008
f 3/17/5 2/18/5 6/19/5 8/20/5 

vt -1791.64 1160.86
vn 0 1 -0
vt -1791.64 136.058
vt -313.291 136.058
vt -313.291 1160.86
f 6/21/6 5/22/6 7/23/6 8/24/6 

